<?xml version="1.0" encoding="UTF-8" standalone="no"?>
<!-- Created with Inkscape (http://www.inkscape.org/) -->

<svg
   xmlns:dc="http://purl.org/dc/elements/1.1/"
   xmlns:cc="http://creativecommons.org/ns#"
   xmlns:rdf="http://www.w3.org/1999/02/22-rdf-syntax-ns#"
   xmlns:svg="http://www.w3.org/2000/svg"
   xmlns="http://www.w3.org/2000/svg"
   xmlns:sodipodi="http://sodipodi.sourceforge.net/DTD/sodipodi-0.dtd"
   xmlns:inkscape="http://www.inkscape.org/namespaces/inkscape"
   width="170"
   height="170"
   viewBox="0 0 44.979166 44.979168"
   version="1.1"
   id="svg8"
   inkscape:version="0.92.3 (2405546, 2018-03-11)"
   sodipodi:docname="reboot.svg">
  <defs
     id="defs2" />
  <sodipodi:namedview
     id="base"
     pagecolor="#ffffff"
     bordercolor="#666666"
     borderopacity="1.0"
     inkscape:pageopacity="0.0"
     inkscape:pageshadow="2"
     inkscape:zoom="1.979899"
     inkscape:cx="32.203508"
     inkscape:cy="38.428734"
     inkscape:document-units="mm"
     inkscape:current-layer="layer1"
     showgrid="false"
     units="px"
     inkscape:window-width="1920"
     inkscape:window-height="1021"
     inkscape:window-x="0"
     inkscape:window-y="33"
     inkscape:window-maximized="1" />
  <metadata
     id="metadata5">
    <rdf:RDF>
      <cc:Work
         rdf:about="">
        <dc:format>image/svg+xml</dc:format>
        <dc:type
           rdf:resource="http://purl.org/dc/dcmitype/StillImage" />
        <dc:title></dc:title>
      </cc:Work>
    </rdf:RDF>
  </metadata>
  <g
     inkscape:label="Layer 1"
     inkscape:groupmode="layer"
     id="layer1"
     transform="translate(0,-252.02081)">
    <path
       style="fill:#000000;stroke-width:0.26097926"
       d="m 9.2195026,296.7202 c -0.06737,-0.18308 -0.152909,-2.21193 -0.190105,-4.50855 l -0.06757,-4.17567 -4.436641,-0.13049 -4.43665095,-0.13049 v -4.17566 -4.17567 H 8.8313396 17.574154 v 8.74281 8.7428 l -4.116058,0.0719 c -3.151341,0.0551 -4.1447724,-0.006 -4.2385474,-0.26098 z m 18.2624824,-0.002 c -0.0708,-0.18425 -0.0976,-4.15087 -0.0596,-8.8147 l 0.069,-8.47974 h 8.74281 8.7428 v 4.17567 4.17566 l -4.43665,0.13049 -4.43664,0.13049 -0.1305,4.43665 -0.13049,4.43665 -4.11606,0.0719 c -3.16253,0.0553 -4.14583,-0.006 -4.24461,-0.2631 z M 0.07795465,269.31212 c -0.07003,-0.18253 -0.09637,-4.14773 -0.05839,-8.81157 l 0.06895,-8.47971 h 4.17566495 4.175665 l 0.130498,4.43665 0.130487,4.43665 4.4366414,0.13049 4.436661,0.13049 v 4.17566 4.17567 l -8.6844104,0.0688 c -6.836035,0.0541 -8.71149595,-0.002 -8.81174195,-0.2631 z m 27.39925035,-0.009 c -0.072,-0.18766 -0.0984,-2.09766 -0.0584,-4.24443 l 0.0725,-3.90323 4.43664,-0.13049 4.43665,-0.13049 0.13049,-4.43665 0.13049,-4.43664 h 4.17568 4.17566 v 8.7428 8.74281 l -8.6844,0.0688 c -6.95937,0.0551 -8.7104,9.8e-4 -8.81533,-0.27245 z m -9.13308,-9.13114 c -0.0727,-0.18939 -0.09949,-2.1008 -0.0596,-4.24757 l 0.0725,-3.90322 h 4.17566 4.17568 v 4.17567 4.17566 l -4.11606,0.0719 c -3.21916,0.0562 -4.14486,-0.003 -4.2482,-0.27244 z"
       id="path75"
       inkscape:connector-curvature="0"
       inkscape:export-xdpi="108.42356"
       inkscape:export-ydpi="108.42356" />
  </g>
</svg>
